<?xml version="1.0" encoding="UTF-8"?>
<svg width="19px" height="18px" viewBox="0 0 19 18" version="1.1" xmlns="http://www.w3.org/2000/svg" xmlns:xlink="http://www.w3.org/1999/xlink">
<!-- Generator: Sketch 59.1 (86144) - https://sketch.com -->
<title>Sun</title>
<desc>Created with Sketch.</desc>
<g id="Symbols" stroke="none" stroke-width="1" fill="none" fill-rule="evenodd">
    <g id="Navigation/Header/Dark" transform="translate(-1086.000000, -6.000000)" fill="#F7F7F7" fill-rule="nonzero">
        <path d="M1095.92068,9.81893683 C1098.7821,9.81893683 1101.10174,12.1385778 1101.10174,15 C1101.10174,17.8614222 1098.7821,20.1810632 1095.92068,20.1810632 C1093.05926,20.1810632 1090.73962,17.8614222 1090.73962,15 C1090.73962,12.1385778 1093.05926,9.81893683 1095.92068,9.81893683 Z M1095.92068,11.7471808 C1094.1242,11.7471808 1092.66786,13.2035176 1092.66786,15 C1092.66786,16.7964824 1094.1242,18.2528192 1095.92068,18.2528192 C1097.71716,18.2528192 1099.1735,16.7964824 1099.1735,15 C1099.1735,13.2035176 1097.71716,11.7471808 1095.92068,11.7471808 Z M1095.14666,6.77402456 L1095.14666,7.73375538 C1095.14666,8.16123734 1095.4932,8.50777994 1095.92068,8.50777994 C1096.34816,8.50777994 1096.6947,8.16123734 1096.6947,7.73375538 L1096.6947,6.77402456 C1096.6947,6.3465426 1096.34816,6 1095.92068,6 C1095.4932,6 1095.14666,6.3465426 1095.14666,6.77402456 Z M1095.14666,22.2662446 L1095.14666,23.2259754 C1095.14666,23.6534574 1095.4932,24 1095.92068,24 C1096.34816,24 1096.6947,23.6534574 1096.6947,23.2259754 L1096.6947,22.2662446 C1096.6947,21.8387627 1096.34816,21.4922201 1095.92068,21.4922201 C1095.4932,21.4922201 1095.14666,21.8387627 1095.14666,22.2662446 Z M1101.19,8.63603897 L1100.51137,9.31467114 C1100.2091,9.61694653 1100.2091,10.1070318 1100.51137,10.4093072 C1100.81365,10.7115826 1101.30373,10.7115826 1101.60601,10.4093072 L1102.28464,9.730675 C1102.58692,9.42839961 1102.58692,8.93831436 1102.28464,8.63603897 C1101.98237,8.33376358 1101.49228,8.33376358 1101.19,8.63603897 Z M1090.23535,19.5906928 L1089.55672,20.269325 C1089.25444,20.5716004 1089.25444,21.0616856 1089.55672,21.363961 C1089.85899,21.6662364 1090.34908,21.6662364 1090.65135,21.363961 L1091.32999,20.6853289 C1091.63226,20.3830535 1091.63226,19.8929682 1091.32999,19.5906928 C1091.02771,19.2884174 1090.53763,19.2884174 1090.23535,19.5906928 Z M1104.14666,14.2259754 L1103.18692,14.2259754 C1102.75944,14.2259754 1102.4129,14.572518 1102.4129,15 C1102.4129,15.427482 1102.75944,15.7740246 1103.18692,15.7740246 L1104.14666,15.7740246 C1104.57414,15.7740246 1104.92068,15.427482 1104.92068,15 C1104.92068,14.572518 1104.57414,14.2259754 1104.14666,14.2259754 Z M1088.65444,14.2259754 L1087.6947,14.2259754 C1087.26722,14.2259754 1086.92068,14.572518 1086.92068,15 C1086.92068,15.427482 1087.26722,15.7740246 1087.6947,15.7740246 L1088.65444,15.7740246 C1089.08192,15.7740246 1089.42846,15.427482 1089.42846,15 C1089.42846,14.572518 1089.08192,14.2259754 1088.65444,14.2259754 Z M1102.28464,20.269325 L1101.60601,19.5906928 C1101.30373,19.2884174 1100.81365,19.2884174 1100.51137,19.5906928 C1100.2091,19.8929682 1100.2091,20.3830535 1100.51137,20.6853289 L1101.19,21.363961 C1101.49228,21.6662364 1101.98237,21.6662364 1102.28464,21.363961 C1102.58692,21.0616856 1102.58692,20.5716004 1102.28464,20.269325 Z M1091.32999,9.31467114 L1090.65135,8.63603897 C1090.34908,8.33376358 1089.85899,8.33376358 1089.55672,8.63603897 C1089.25444,8.93831436 1089.25444,9.42839961 1089.55672,9.730675 L1090.23535,10.4093072 C1090.53763,10.7115826 1091.02771,10.7115826 1091.32999,10.4093072 C1091.63226,10.1070318 1091.63226,9.61694653 1091.32999,9.31467114 Z" id="Sun"></path>
    </g>
</g>
</svg>
